<?xml version="1.0" encoding="utf-8"?>
<!-- Generator: Adobe Illustrator 19.2.0, SVG Export Plug-In . SVG Version: 6.00 Build 0)  -->
<svg version="1.1" id="Layer_1" xmlns="http://www.w3.org/2000/svg" xmlns:xlink="http://www.w3.org/1999/xlink" x="0px" y="0px"
	 viewBox="0 0 300 300" style="enable-background:new 0 0 300 300;" xml:space="preserve">
<style type="text/css">
	.st0{fill:#0362A6;}
	.st1{fill:#FFFFFF;}
</style>
<g>
	<rect y="0" class="st0" width="300" height="300"/>
	<g>
		<g>
			<path class="st1" d="M133.7,240.4c0,2.2,1.8,4,4,4h59.5c2.2,0,4-1.8,4-4v-9.2h-67.5V240.4z"/>
			<path class="st1" d="M132.3,129.3l0-29.4c0-3.4,1.3-6.6,3.6-9c2.6-2.6,6.4-4.1,10.3-4.1c3.1,0,6,0.9,8.3,2.6
				c2.8,2.1,4.5,5.1,4.9,8.7c0,0.1,1.6,15.4,3,29.2c10-5.9,16.7-16.7,16.7-29.2c0-18.7-15.1-33.8-33.8-33.8s-33.8,15.1-33.8,33.8
				C111.6,112.2,120.2,124.2,132.3,129.3z"/>
			<path class="st1" d="M211.7,167.7c0-3.9-2.5-7.4-6.3-8.6c-11.2-3.6-33.7-10.9-37.1-11.6c-1.1-0.2-2.1-0.3-3.1-0.3
				c-2.7,0-5.1,0.7-6.5,2h0c0,0,0,0,0,0c0-0.2-5.2-50.3-5.2-50.4c-0.4-4-3.8-5.9-7.2-5.9c-3.9,0-7.9,2.5-7.9,7l0,81.3
				c0,1-0.7,1.8-1.7,1.9c0,0,0,0,0,0c-0.1,0-0.2,0-0.3,0c0,0,0,0-0.1,0c-2.7-0.1-8.9-0.2-14.9-8.9c-0.8-1.1-1.5-2.2-2.2-3.2
				c-2.1-3-4.9-4.3-7.5-4.3c-4.6,0-8.8,4-7.8,10c1.4,8.7,11,29,29.8,48h67.5l6.8-11.5c2.4-4.1,3.7-8.7,3.7-13.5L211.7,167.7z"/>
		</g>
	</g>
</g>
</svg>
