<?xml version="1.0" encoding="utf-8"?>
<!-- Generator: Adobe Illustrator 19.2.0, SVG Export Plug-In . SVG Version: 6.00 Build 0)  -->
<svg version="1.1" id="Layer_1" xmlns="http://www.w3.org/2000/svg" xmlns:xlink="http://www.w3.org/1999/xlink" x="0px" y="0px"
	 viewBox="0 0 300 300" style="enable-background:new 0 0 300 300;" xml:space="preserve">
<style type="text/css">
	.st0{fill:#0362A6;}
	.st1{fill:#FFFFFF;}
</style>
<g>
	<rect y="0" class="st0" width="300" height="300"/>
	<g>
		<g>
			<g>
				<path class="st1" d="M252.1,183.4c0-8.7-6.3-16.9-17.3-23.8V76.4H67.4v110.9h153.3c-6.9,10.9-29.3,17.9-56.1,23.3l-4-19.5
					l-39.2,37.5l50.3,16.2l-3.6-17.5C216.8,221.3,252.1,204.1,252.1,183.4z M215,88c-16.4,11.1-59.9,40.6-63.9,43.2
					c-3.9-2.6-47.4-32.1-63.8-43.2C87.3,88,215,88,215,88z M76.2,91.1l74.9,50.7L226,91.1v63.7c-14-6.8-32.8-12-54.5-15
					c24.9,7.8,49.5,25.2,51.3,38.9H76.2C76.2,178.6,76.2,91.1,76.2,91.1z"/>
			</g>
		</g>
	</g>
</g>
</svg>
