<?xml version="1.0" encoding="utf-8"?>
<!-- Generator: Adobe Illustrator 19.2.0, SVG Export Plug-In . SVG Version: 6.00 Build 0)  -->
<svg version="1.1" id="Layer_1" xmlns="http://www.w3.org/2000/svg" xmlns:xlink="http://www.w3.org/1999/xlink" x="0px" y="0px"
	 viewBox="0 0 300 300" style="enable-background:new 0 0 300 300;" xml:space="preserve">
<style type="text/css">
	.st0{fill:#0362A6;}
	.st1{fill:#FFFFFF;}
</style>
<g>
	<rect y="0" class="st0" width="300" height="300"/>
	<g>
		<path class="st1" d="M148.9,70.6c-43.9,0.6-79,36.6-78.4,80.5c0.6,43.9,36.6,79,80.5,78.4c43.9-0.6,79-36.6,78.4-80.5
			C228.8,105.1,192.8,70,148.9,70.6z M148.7,198.4l-0.4,0c-6.8-0.2-11.5-5.2-11.3-11.8c0.2-6.5,5.1-11.3,11.6-11.3l0.4,0
			c6.9,0.2,11.7,5.1,11.5,12C160.2,193.8,155.4,198.4,148.7,198.4z M177.1,142c-1.6,2.3-5.1,5.1-9.5,8.5l-4.8,3.3
			c-2.7,2.1-4.3,4-4.9,5.9c-0.5,1.5-0.7,1.9-0.7,5l0,0.8h-18.5l0.1-1.6c0.2-6.4,0.4-10.2,3.1-13.4c4.2-4.9,13.4-10.9,13.8-11.1
			c1.3-1,2.4-2.1,3.3-3.3c1.9-2.7,2.8-4.8,2.8-6.9c0-2.9-0.9-5.5-2.5-7.9c-1.6-2.3-4.7-3.4-9.2-3.4c-4.4,0-7.4,1.4-9.3,4.3
			c-1.9,3-2.8,6.1-2.8,9.2v0.8h-19.1l0-0.8c0.5-11.7,4.7-20.1,12.4-25c4.9-3.1,10.9-4.7,18-4.7c9.2,0,17,2.2,23.2,6.7
			c6.2,4.5,9.4,11.2,9.4,20C181.7,133.2,180.2,137.8,177.1,142z"/>
	</g>
</g>
</svg>
